<svg xmlns="http://www.w3.org/2000/svg" viewBox="0 0 512 512">
  <defs>
    <linearGradient id="bgGrad" x1="0%" y1="0%" x2="100%" y2="100%">
      <stop offset="0%" style="stop-color:#8E2DE2;stop-opacity:1" />
      <stop offset="100%" style="stop-color:#4A00E0;stop-opacity:1" />
    </linearGradient>
  </defs>

  <!-- Background rounded square -->
  <rect width="512" height="512" fill="url(#bgGrad)" rx="80"/>

  <!-- Title text -->
  <text x="256" y="110" font-family="Arial, sans-serif" font-size="88" font-weight="bold" fill="#FFFFFF" text-anchor="middle">AD</text>

  <!-- Hexagon outer (semi-transparent) -->
  <polygon points="256,130 360,190 360,310 256,370 152,310 152,190" fill="white" opacity="0.15" stroke="white" stroke-width="3"/>
  <!-- Hexagon inner (white fill) -->
  <polygon points="256,150 340,200 340,300 256,350 172,300 172,200" fill="white" opacity="0.9"/>

  <!-- Font Awesome users icon (fa-solid fa-users) centered in hexagon -->
  <!-- Hexagon center is at (256, 250), icon scaled and centered -->
  <g transform="translate(256, 250) scale(0.18) translate(-320, -256)">
    <path fill="#6B20B0" d="M144 0a80 80 0 1 1 0 160A80 80 0 1 1 144 0zM512 0a80 80 0 1 1 0 160A80 80 0 1 1 512 0zM0 298.7C0 239.8 47.8 192 106.7 192h42.7c15.9 0 31 3.5 44.6 9.7c-1.3 7.2-1.9 14.7-1.9 22.3c0 38.2 16.8 72.5 43.3 96H21.3C9.6 320 0 310.4 0 298.7zM405.3 320c26.6-23.5 43.3-57.8 43.3-96c0-7.6-.7-15-1.9-22.3c13.6-6.3 28.7-9.7 44.6-9.7h42.7C593.2 192 640 239.8 640 298.7c0 11.8-9.6 21.3-21.3 21.3H405.3zM224 224a96 96 0 1 1 192 0 96 96 0 1 1 -192 0zM128 485.3C128 411.7 187.7 352 261.3 352H378.7C452.3 352 512 411.7 512 485.3c0 14.7-11.9 26.7-26.7 26.7H154.7c-14.7 0-26.7-11.9-26.7-26.7z"/>
  </g>

  <!-- Subtitle text -->
  <text x="256" y="440" font-family="Arial, sans-serif" font-size="88" font-weight="bold" fill="#FFFFFF" text-anchor="middle">Info</text>
  <text x="256" y="470" font-family="Arial, sans-serif" font-size="16" fill="#b388ff" text-anchor="middle" letter-spacing="4">xyOps Plugin</text>
</svg>
